# xmcd
#
# Track frame offsets:
#	183
#	12885
#	24068
#	41615
#	55350
#	71965
#	82815
#	96780
#	113803
#	126643
#
# Disc length: 1914 seconds
#
# Revision: 0
# Processed by: cddbd v1.5.1PL0 Copyright (c) Steve Scherf et al.
# Submitted via: audiograbber 1.83.01
#
DISCID=7e07780a
DTITLE=Curtis Wright - Curtis Wright
DYEAR=1992
DGENRE=Country
TTITLE0=What's It To You
TTITLE1=Phonographic Memory
TTITLE2=If I Ever Love Again
TTITLE3=I Can't Stand To Watch My Old Flame Burn
TTITLE4=I Don't Know How Love Starts
TTITLE5=If I Could Stop Lovin' You
TTITLE6=If You Don't Love Me
TTITLE7=Talk To Me, Heart
TTITLE8=I Tripped Over Your Memory
TTITLE9=Hometown Radio
EXTD=
EXTT0=
EXTT1=
EXTT2=
EXTT3=
EXTT4=
EXTT5=
EXTT6=
EXTT7=
EXTT8=
EXTT9=
PLAYORDER=
